<svg id="Ebene_1" data-name="Ebene 1" xmlns="http://www.w3.org/2000/svg" viewBox="0 0 169.75 100.32"><defs><style>.cls-1{fill:#243d51;}.cls-2{fill:#c7348b;}</style></defs><title>Logo_nhc_myYolo_RGB_quadratisch_21</title><polygon class="cls-1" points="15.68 0.99 15.68 19.06 5.22 0.99 0 0.99 0 26.64 4.68 26.64 4.68 8.6 15.41 26.64 20.34 26.64 20.34 0.99 15.68 0.99"/><path class="cls-2" d="M45.14,77.53a13.9,13.9,0,0,0,21.52,0Z" transform="translate(-14.59 -54.81)"/><path class="cls-2" d="M69.36,72.18a13.91,13.91,0,1,0-26.92,0h5.4a8.67,8.67,0,0,1-.71-3.46A8.78,8.78,0,1,1,64,72.18Z" transform="translate(-14.59 -54.81)"/><polygon class="cls-1" points="68.32 26.65 73.47 26.65 82.36 0.99 77.16 0.99 71.01 21.03 64.81 0.99 59.55 0.99 68.32 26.65"/><polygon class="cls-1" points="93.78 5.22 104.97 5.22 104.97 0.99 88.86 0.99 88.86 26.65 105.4 26.65 105.4 22.45 93.78 22.45 93.78 15.45 103.97 15.45 103.97 11.26 93.78 11.26 93.78 5.22"/><polygon class="cls-1" points="112.86 26.64 117.56 26.64 117.56 8.6 128.29 26.64 133.21 26.64 133.21 0.98 128.56 0.98 128.56 19.06 118.09 0.98 112.86 0.98 112.86 26.64"/><polygon class="cls-1" points="139.79 5.22 146.52 5.22 146.52 26.64 151.48 26.64 151.48 5.22 158.25 5.22 158.25 0.98 139.79 0.98 139.79 5.22"/><rect class="cls-1" x="164.83" y="0.99" width="4.92" height="25.66"/><polygon class="cls-2" points="67.18 63.74 51.51 100.31 48.8 100.31 53.54 89.24 43.23 63.74 45.99 63.74 51.98 78.99 55 86.47 57.97 78.94 64.42 63.74 67.18 63.74"/><path class="cls-2" d="M45.31,118h-.12c-3.83,0-7.85,1.74-9.42,6.17,0,.07-.06.12-.08.19a1.63,1.63,0,0,1-.09-.19C34,119.77,30,118,26.18,118h-.12c-6.24,0-10.67,4.48-10.67,10.88V144.4h2.55V128.91a9.33,9.33,0,0,1,.91-4.14c.08-.16.16-.31.25-.46l.09-.15a7.86,7.86,0,0,1,6.91-3.67c4.89,0,8.31,3.61,8.31,8.58V144.4H37V129.07c0-5,3.42-8.58,8.32-8.58a7.84,7.84,0,0,1,6.9,3.67l.09.15c.09.15.17.3.25.46a9.33,9.33,0,0,1,.91,4.14V144.4H56V128.91C56,122.51,51.55,118.08,45.31,118Z" transform="translate(-14.59 -54.81)"/><path class="cls-2" d="M95.07,130.58l-12.81-21.2H90.5l8.29,14.72,8.45-14.72h7.43l-12.56,21.2v13.87h-7Z" transform="translate(-14.59 -54.81)"/><path class="cls-2" d="M169.38,118c7.69,0,13.57,5.17,13.57,13.72,0,7.44-5,13.37-13.57,13.37s-13.52-5.93-13.52-13.37C155.86,123.14,161.74,118,169.38,118Zm0,21.86c5.18,0,6.54-4.62,6.54-9,0-4-2.12-7.68-6.54-7.68s-6.48,3.81-6.48,7.68C162.9,135.16,164.26,139.83,169.38,139.83Z" transform="translate(-14.59 -54.81)"/><path class="cls-2" d="M140.49,118.55h6.73v16.91c0,2.22.6,4.29,3.17,4.29a5.92,5.92,0,0,0,3.06-.71l.2,5.36a17.34,17.34,0,0,1-5,.61c-5.28,0-8.19-3.29-8.19-8.44Z" transform="translate(-14.59 -54.81)"/><path class="cls-2" d="M111.84,140.44a13.79,13.79,0,0,0,21.53,0ZM136.06,135a13.91,13.91,0,1,0-26.92,0h5.4a8.8,8.8,0,1,1,16.84-3.51,9.09,9.09,0,0,1-.71,3.51Z" transform="translate(-14.59 -54.81)"/></svg>